<?xml version="1.0" encoding="UTF-8"?>
<svg height="600" width="800" xmlns="http://www.w3.org/2000/svg" xmlns:xlink="http://www.w3.org/1999/xlink">
    <g id="Notes" font-family="'LucidaGrande', 'Lucida Grande', sans-serif" font-size="13">
        <rect fill="white" height="600.0" width="800.0" x="0.0" y="0.0" />
        <g font-size="13">
            <text x="18.0" y="176.0">Small</text>
            <text x="18.0" y="376.0">Medium</text>
            <text x="18.0" y="576.0">Large</text>
        </g>
        <g font-size="9">
            <text x="250.0" y="30.0">Ultralight</text>
            <text x="450.0" y="30.0">Regular</text>
            <text x="650.0" y="30.0">Black</text>
            <text id="template-version" fill="#505050" text-anchor="end" x="785.0" y="575.0">Template v.3.0</text>
            <a href="https://wangchujiang.com/#/app">
                <text fill="#505050" text-anchor="end" x="785.0" y="590.0">https://wangchujiang.com/#/app</text>
            </a>
        </g>
    </g>
    <g id="Guides" stroke="rgb(39, 170, 225)" stroke-width="0.5">
        <path id="Capline-S" d="M18,76 l800,0" />
        <path id="H-reference" d="M85,145.755 L87.685,145.755 L113.369,79.287 L114.052,79.287 L114.052,76 L112.148,76 L85,145.755 Z M95.693,121.536 L130.996,121.536 L130.263,119.313 L96.474,119.313 L95.693,121.536 Z M139.15,145.755 L141.787,145.755 L114.638,76 L113.466,76 L113.466,79.287 L139.15,145.755 Z" stroke="none" />
        <path id="Baseline-S" d="M18,146 l800,0" />
        <path id="left-margin-Ultralight-S" d="M214.167,56 l0,110" />
        <path id="right-margin-Ultralight-S" d="M315.833,56 l0,110" />
        <path id="left-margin-Regular-S" d="M414.167,56 l0,110" />
        <path id="right-margin-Regular-S" d="M515.833,56 l0,110" />
        <path id="left-margin-Black-S" d="M614.167,56 l0,110" />
        <path id="right-margin-Black-S" d="M715.833,56 l0,110" />
        <path id="Capline-M" d="M18,276 l800,0" />
        <path id="Baseline-M" d="M18,346 l800,0" />
        <path id="Capline-L" d="M18,476 l800,0" />
        <path id="Baseline-L" d="M18,546 l800,0" />
    </g>
    <g id="Symbols">
        <g id="Ultralight-S">
            <path d="M283.958,143.448 C285.972,143.448 287.604,145.08 287.604,147.094 C287.604,149.107 285.972,150.74 283.958,150.74 L246.042,150.74 C244.029,150.739 242.396,149.107 242.396,147.094 C242.396,145.08 244.028,143.448 246.042,143.448 L283.958,143.448 Z M292.711,131.781 C294.724,131.782 296.357,133.414 296.357,135.427 C296.357,137.44 294.724,139.073 292.711,139.073 L237.295,139.073 C235.281,139.073 233.649,137.44 233.649,135.427 C233.649,133.413 235.281,131.781 237.295,131.781 L292.711,131.781 Z M265.003,82.927 C281.11,82.928 294.17,95.986 294.17,112.094 C294.17,114.877 293.766,117.566 293.036,120.115 L301.455,120.115 C303.469,120.115 305.101,121.747 305.101,123.76 C305.101,125.774 303.469,127.406 301.455,127.406 L228.539,127.406 C226.526,127.406 224.893,125.774 224.893,123.76 C224.893,121.747 226.526,120.115 228.539,120.115 L236.964,120.115 C236.235,117.566 235.836,114.877 235.836,112.094 C235.836,95.985 248.895,82.927 265.003,82.927 Z M276.046,96.593 C274.549,95.601 272.531,96.009 271.537,97.505 L262.038,111.809 L258.221,107.343 C257.054,105.977 255.002,105.815 253.635,106.981 C252.269,108.148 252.107,110.201 253.273,111.567 L258.489,117.674 C260.594,120.137 264.472,119.903 266.265,117.204 L276.957,101.105 C277.951,99.608 277.542,97.587 276.046,96.593 Z M230,109.177 C231.611,109.177 232.917,110.483 232.917,112.094 C232.917,113.705 231.611,115.01 230,115.01 L227.083,115.01 C225.472,115.01 224.167,113.705 224.167,112.094 C224.167,110.483 225.472,109.177 227.083,109.177 L230,109.177 Z M302.917,109.177 C304.528,109.177 305.833,110.483 305.833,112.094 C305.833,113.705 304.528,115.01 302.917,115.01 L300,115.01 C298.389,115.01 297.083,113.705 297.083,112.094 C297.083,110.483 298.389,109.177 300,109.177 L302.917,109.177 Z M236.127,83.22 C237.266,82.082 239.112,82.082 240.251,83.22 L242.313,85.283 C243.452,86.422 243.452,88.268 242.313,89.407 C241.174,90.546 239.328,90.546 238.189,89.407 L236.127,87.345 C234.988,86.206 234.988,84.359 236.127,83.22 Z M289.749,83.22 C290.888,82.081 292.734,82.081 293.873,83.22 C295.012,84.359 295.012,86.206 293.873,87.345 L291.811,89.407 C290.672,90.546 288.826,90.546 287.687,89.407 C286.548,88.268 286.548,86.422 287.687,85.283 L289.749,83.22 Z M265,71.26 C266.611,71.26 267.917,72.566 267.917,74.177 L267.917,77.094 C267.917,78.705 266.611,80.01 265,80.01 C263.389,80.01 262.083,78.705 262.083,77.094 L262.083,74.177 C262.083,72.566 263.389,71.26 265,71.26 Z" />
        </g>
        <g id="Regular-S">
            <path d="M483.958,143.448 C485.972,143.448 487.604,145.08 487.604,147.094 C487.604,149.107 485.972,150.74 483.958,150.74 L446.042,150.74 C444.029,150.739 442.396,149.107 442.396,147.094 C442.396,145.08 444.028,143.448 446.042,143.448 L483.958,143.448 Z M492.711,131.781 C494.724,131.782 496.357,133.414 496.357,135.427 C496.357,137.44 494.724,139.073 492.711,139.073 L437.295,139.073 C435.281,139.073 433.649,137.44 433.649,135.427 C433.649,133.413 435.281,131.781 437.295,131.781 L492.711,131.781 Z M465.003,82.927 C481.11,82.928 494.17,95.986 494.17,112.094 C494.17,114.877 493.766,117.566 493.036,120.115 L501.455,120.115 C503.469,120.115 505.101,121.747 505.101,123.76 C505.101,125.774 503.469,127.406 501.455,127.406 L428.539,127.406 C426.526,127.406 424.893,125.774 424.893,123.76 C424.893,121.747 426.526,120.115 428.539,120.115 L436.964,120.115 C436.235,117.566 435.836,114.877 435.836,112.094 C435.836,95.985 448.895,82.927 465.003,82.927 Z M476.046,96.593 C474.549,95.601 472.531,96.009 471.537,97.505 L462.038,111.809 L458.221,107.343 C457.054,105.977 455.002,105.815 453.635,106.981 C452.269,108.148 452.107,110.201 453.273,111.567 L458.489,117.674 C460.594,120.137 464.472,119.903 466.265,117.204 L476.957,101.105 C477.951,99.608 477.542,97.587 476.046,96.593 Z M430,109.177 C431.611,109.177 432.917,110.483 432.917,112.094 C432.917,113.705 431.611,115.01 430,115.01 L427.083,115.01 C425.473,115.01 424.167,113.705 424.167,112.094 C424.167,110.483 425.473,109.177 427.083,109.177 L430,109.177 Z M502.917,109.177 C504.528,109.177 505.833,110.483 505.833,112.094 C505.833,113.705 504.528,115.01 502.917,115.01 L500,115.01 C498.389,115.01 497.083,113.705 497.083,112.094 C497.083,110.483 498.389,109.177 500,109.177 L502.917,109.177 Z M436.127,83.22 C437.266,82.082 439.112,82.082 440.251,83.22 L442.313,85.283 C443.452,86.422 443.452,88.268 442.313,89.407 C441.174,90.546 439.328,90.546 438.189,89.407 L436.127,87.345 C434.988,86.206 434.988,84.359 436.127,83.22 Z M489.749,83.22 C490.888,82.081 492.734,82.081 493.873,83.22 C495.012,84.359 495.012,86.206 493.873,87.345 L491.811,89.407 C490.672,90.546 488.826,90.546 487.687,89.407 C486.548,88.268 486.548,86.422 487.687,85.283 L489.749,83.22 Z M465,71.26 C466.611,71.26 467.917,72.566 467.917,74.177 L467.917,77.094 C467.917,78.705 466.611,80.01 465,80.01 C463.389,80.01 462.083,78.705 462.083,77.094 L462.083,74.177 C462.083,72.566 463.389,71.26 465,71.26 Z" />
        </g>
        <g id="Black-S">
            <path d="M683.958,143.448 C685.972,143.448 687.604,145.08 687.604,147.094 C687.604,149.107 685.972,150.74 683.958,150.74 L646.042,150.74 C644.029,150.739 642.396,149.107 642.396,147.094 C642.396,145.08 644.028,143.448 646.042,143.448 L683.958,143.448 Z M692.711,131.781 C694.724,131.782 696.357,133.414 696.357,135.427 C696.357,137.44 694.724,139.073 692.711,139.073 L637.295,139.073 C635.281,139.073 633.649,137.44 633.649,135.427 C633.649,133.413 635.281,131.781 637.295,131.781 L692.711,131.781 Z M665.003,82.927 C681.11,82.928 694.17,95.986 694.17,112.094 C694.17,114.877 693.766,117.566 693.036,120.115 L701.455,120.115 C703.469,120.115 705.101,121.747 705.101,123.76 C705.101,125.774 703.469,127.406 701.455,127.406 L628.539,127.406 C626.526,127.406 624.893,125.774 624.893,123.76 C624.893,121.747 626.526,120.115 628.539,120.115 L636.964,120.115 C636.235,117.566 635.836,114.877 635.836,112.094 C635.836,95.985 648.895,82.927 665.003,82.927 Z M676.046,96.593 C674.549,95.601 672.531,96.009 671.537,97.505 L662.038,111.809 L658.221,107.343 C657.054,105.977 655.002,105.815 653.635,106.981 C652.269,108.148 652.107,110.201 653.274,111.567 L658.489,117.674 C660.594,120.137 664.472,119.903 666.265,117.204 L676.957,101.105 C677.951,99.608 677.542,97.587 676.046,96.593 Z M630,109.177 C631.611,109.177 632.917,110.483 632.917,112.094 C632.917,113.705 631.611,115.01 630,115.01 L627.083,115.01 C625.473,115.01 624.167,113.705 624.167,112.094 C624.167,110.483 625.473,109.177 627.083,109.177 L630,109.177 Z M702.917,109.177 C704.528,109.177 705.833,110.483 705.833,112.094 C705.833,113.705 704.528,115.01 702.917,115.01 L700,115.01 C698.389,115.01 697.083,113.705 697.083,112.094 C697.083,110.483 698.389,109.177 700,109.177 L702.917,109.177 Z M636.127,83.22 C637.266,82.082 639.112,82.082 640.251,83.22 L642.313,85.283 C643.452,86.422 643.452,88.268 642.313,89.407 C641.174,90.546 639.328,90.546 638.189,89.407 L636.127,87.345 C634.988,86.206 634.988,84.359 636.127,83.22 Z M689.749,83.22 C690.888,82.081 692.734,82.081 693.873,83.22 C695.012,84.359 695.012,86.206 693.873,87.345 L691.811,89.407 C690.672,90.546 688.826,90.546 687.687,89.407 C686.548,88.268 686.548,86.422 687.687,85.283 L689.749,83.22 Z M665,71.26 C666.611,71.26 667.917,72.566 667.917,74.177 L667.917,77.094 C667.917,78.705 666.611,80.01 665,80.01 C663.389,80.01 662.083,78.705 662.083,77.094 L662.083,74.177 C662.083,72.566 663.389,71.26 665,71.26 Z" />
        </g>
    </g>
</svg>