<?xml version="1.0" encoding="UTF-8"?>
<svg height="600" width="800" xmlns="http://www.w3.org/2000/svg" xmlns:xlink="http://www.w3.org/1999/xlink">
    <g id="Notes" font-family="'LucidaGrande', 'Lucida Grande', sans-serif" font-size="13">
        <rect fill="white" height="600.0" width="800.0" x="0.0" y="0.0" />
        <g font-size="13">
            <text x="18.0" y="176.0">Small</text>
            <text x="18.0" y="376.0">Medium</text>
            <text x="18.0" y="576.0">Large</text>
        </g>
        <g font-size="9">
            <text x="250.0" y="30.0">Ultralight</text>
            <text x="450.0" y="30.0">Regular</text>
            <text x="650.0" y="30.0">Black</text>
            <text id="template-version" fill="#505050" text-anchor="end" x="785.0" y="575.0">Template v.3.0</text>
            <a href="https://wangchujiang.com/#/app">
                <text fill="#505050" text-anchor="end" x="785.0" y="590.0">https://wangchujiang.com/#/app</text>
            </a>
        </g>
    </g>
    <g id="Guides" stroke="rgb(39, 170, 225)" stroke-width="0.5">
        <path id="Capline-S" d="M18,76 l800,0" />
        <path id="H-reference" d="M85,145.755 L87.685,145.755 L113.369,79.287 L114.052,79.287 L114.052,76 L112.148,76 L85,145.755 Z M95.693,121.536 L130.996,121.536 L130.263,119.313 L96.474,119.313 L95.693,121.536 Z M139.15,145.755 L141.787,145.755 L114.638,76 L113.466,76 L113.466,79.287 L139.15,145.755 Z" stroke="none" />
        <path id="Baseline-S" d="M18,146 l800,0" />
        <path id="left-margin-Ultralight-S" d="M214.167,56 l0,110" />
        <path id="right-margin-Ultralight-S" d="M315.833,56 l0,110" />
        <path id="left-margin-Regular-S" d="M414.167,56 l0,110" />
        <path id="right-margin-Regular-S" d="M515.833,56 l0,110" />
        <path id="left-margin-Black-S" d="M614.167,56 l0,110" />
        <path id="right-margin-Black-S" d="M715.833,56 l0,110" />
        <path id="Capline-M" d="M18,276 l800,0" />
        <path id="Baseline-M" d="M18,346 l800,0" />
        <path id="Capline-L" d="M18,476 l800,0" />
        <path id="Baseline-L" d="M18,546 l800,0" />
    </g>
    <g id="Symbols">
        <g id="Ultralight-S">
            <path d="M260.127,79.734 C261.468,74.755 268.532,74.755 269.873,79.734 L271.695,86.502 C274.033,95.185 280.815,101.967 289.498,104.305 L296.266,106.127 C301.245,107.468 301.245,114.532 296.266,115.873 L289.498,117.695 C280.815,120.033 274.033,126.815 271.695,135.498 L269.873,142.266 C268.532,147.245 261.468,147.245 260.127,142.266 L258.305,135.498 C255.967,126.815 249.185,120.033 240.502,117.695 L233.734,115.873 C228.755,114.532 228.755,107.468 233.734,106.127 L240.502,104.305 C249.185,101.967 255.967,95.185 258.305,86.502 L260.127,79.734 Z" />
            <path d="M289.626,74.328 C290.073,72.668 292.427,72.668 292.874,74.328 L293.482,76.584 C294.261,79.478 296.522,81.739 299.416,82.518 L301.672,83.126 C303.332,83.573 303.332,85.927 301.672,86.374 L299.416,86.982 C296.522,87.761 294.261,90.022 293.482,92.916 L292.874,95.172 C292.427,96.832 290.073,96.832 289.626,95.172 L289.018,92.916 C288.239,90.022 285.978,87.761 283.084,86.982 L280.828,86.374 C279.168,85.927 279.168,83.573 280.828,83.126 L283.084,82.518 C285.978,81.739 288.239,79.478 289.018,76.584 L289.626,74.328 Z" />
            <path d="M237.126,126.828 C237.573,125.168 239.927,125.168 240.374,126.828 L240.982,129.084 C241.761,131.978 244.022,134.239 246.916,135.018 L249.172,135.626 C250.832,136.073 250.832,138.427 249.172,138.874 L246.916,139.482 C244.022,140.261 241.761,142.522 240.982,145.416 L240.374,147.672 C239.927,149.332 237.573,149.332 237.126,147.672 L236.518,145.416 C235.739,142.522 233.478,140.261 230.584,139.482 L228.328,138.874 C226.668,138.427 226.668,136.073 228.328,135.626 L230.584,135.018 C233.478,134.239 235.739,131.978 236.518,129.084 L237.126,126.828 Z" />
        </g>
        <g id="Regular-S">
            <path d="M460.127,79.734 C461.468,74.755 468.532,74.755 469.873,79.734 L471.695,86.502 C474.033,95.185 480.815,101.967 489.498,104.305 L496.266,106.127 C501.245,107.468 501.245,114.532 496.266,115.873 L489.498,117.695 C480.815,120.033 474.033,126.815 471.695,135.498 L469.873,142.266 C468.532,147.245 461.468,147.245 460.127,142.266 L458.305,135.498 C455.967,126.815 449.185,120.033 440.502,117.695 L433.734,115.873 C428.755,114.532 428.755,107.468 433.734,106.127 L440.502,104.305 C449.185,101.967 455.967,95.185 458.305,86.502 L460.127,79.734 Z" />
            <path d="M489.626,74.328 C490.073,72.668 492.427,72.668 492.874,74.328 L493.482,76.584 C494.261,79.478 496.522,81.739 499.416,82.518 L501.672,83.126 C503.332,83.573 503.332,85.927 501.672,86.374 L499.416,86.982 C496.522,87.761 494.261,90.022 493.482,92.916 L492.874,95.172 C492.427,96.832 490.073,96.832 489.626,95.172 L489.018,92.916 C488.239,90.022 485.978,87.761 483.084,86.982 L480.828,86.374 C479.168,85.927 479.168,83.573 480.828,83.126 L483.084,82.518 C485.978,81.739 488.239,79.478 489.018,76.584 L489.626,74.328 Z" />
            <path d="M437.126,126.828 C437.573,125.168 439.927,125.168 440.374,126.828 L440.982,129.084 C441.761,131.978 444.022,134.239 446.916,135.018 L449.172,135.626 C450.832,136.073 450.832,138.427 449.172,138.874 L446.916,139.482 C444.022,140.261 441.761,142.522 440.982,145.416 L440.374,147.672 C439.927,149.332 437.573,149.332 437.126,147.672 L436.518,145.416 C435.739,142.522 433.478,140.261 430.584,139.482 L428.328,138.874 C426.668,138.427 426.668,136.073 428.328,135.626 L430.584,135.018 C433.478,134.239 435.739,131.978 436.518,129.084 L437.126,126.828 Z" />
        </g>
        <g id="Black-S">
            <path d="M660.127,79.734 C661.468,74.755 668.532,74.755 669.873,79.734 L671.695,86.502 C674.033,95.185 680.815,101.967 689.498,104.305 L696.266,106.127 C701.245,107.468 701.245,114.532 696.266,115.873 L689.498,117.695 C680.815,120.033 674.033,126.815 671.695,135.498 L669.873,142.266 C668.532,147.245 661.468,147.245 660.127,142.266 L658.305,135.498 C655.967,126.815 649.185,120.033 640.502,117.695 L633.734,115.873 C628.755,114.532 628.755,107.468 633.734,106.127 L640.502,104.305 C649.185,101.967 655.967,95.185 658.305,86.502 L660.127,79.734 Z" />
            <path d="M689.626,74.328 C690.073,72.668 692.427,72.668 692.874,74.328 L693.482,76.584 C694.261,79.478 696.522,81.739 699.416,82.518 L701.672,83.126 C703.332,83.573 703.332,85.927 701.672,86.374 L699.416,86.982 C696.522,87.761 694.261,90.022 693.482,92.916 L692.874,95.172 C692.427,96.832 690.073,96.832 689.626,95.172 L689.018,92.916 C688.239,90.022 685.978,87.761 683.084,86.982 L680.828,86.374 C679.168,85.927 679.168,83.573 680.828,83.126 L683.084,82.518 C685.978,81.739 688.239,79.478 689.018,76.584 L689.626,74.328 Z" />
            <path d="M637.126,126.828 C637.573,125.168 639.927,125.168 640.374,126.828 L640.982,129.084 C641.761,131.978 644.022,134.239 646.916,135.018 L649.172,135.626 C650.832,136.073 650.832,138.427 649.172,138.874 L646.916,139.482 C644.022,140.261 641.761,142.522 640.982,145.416 L640.374,147.672 C639.927,149.332 637.573,149.332 637.126,147.672 L636.518,145.416 C635.739,142.522 633.478,140.261 630.584,139.482 L628.328,138.874 C626.668,138.427 626.668,136.073 628.328,135.626 L630.584,135.018 C633.478,134.239 635.739,131.978 636.518,129.084 L637.126,126.828 Z" />
        </g>
    </g>
</svg>